<svg width="32" height="32" viewBox="0 0 32 32" fill="none" xmlns="http://www.w3.org/2000/svg">
<path d="M16 25C20.9706 25 25 20.9706 25 16C25 11.0294 20.9706 7 16 7C11.0294 7 7 11.0294 7 16C7 20.9706 11.0294 25 16 25Z" fill="white"/>
<path d="M27.4286 15.9999C27.4286 22.3117 22.3118 27.4284 16 27.4284C9.68816 27.4284 4.57141 22.3117 4.57141 15.9999C4.57141 9.68803 9.68816 4.57129 16 4.57129C22.3118 4.57129 27.4286 9.68803 27.4286 15.9999Z" fill="#4C4C6E"/>
<path d="M21.7172 21.1468H19.4313V17.5655C19.4313 16.7116 19.4159 15.6121 18.2421 15.6121C17.0515 15.6121 16.8692 16.5423 16.8692 17.5028V21.1466H14.5833V13.7838H16.7778V14.7902H16.8074C17.027 14.4146 17.3444 14.1057 17.7258 13.8962C18.1071 13.6868 18.5381 13.5848 18.9728 13.6009C21.2899 13.6009 21.7172 15.1252 21.7172 17.108V21.1468ZM12.0038 12.7772C11.7413 12.7773 11.4848 12.6995 11.2666 12.5538C11.0484 12.408 10.8783 12.2008 10.7778 11.9583C10.6773 11.7159 10.651 11.4491 10.7022 11.1917C10.7533 10.9343 10.8797 10.6978 11.0652 10.5122C11.2507 10.3266 11.4871 10.2002 11.7445 10.149C12.0019 10.0978 12.2687 10.1241 12.5111 10.2245C12.7536 10.3249 12.9608 10.495 13.1066 10.7132C13.2524 10.9314 13.3302 11.1879 13.3302 11.4504C13.3302 11.8022 13.1905 12.1397 12.9417 12.3885C12.693 12.6373 12.3556 12.7772 12.0038 12.7772ZM13.1467 21.1466H10.8584V13.7838H13.147L13.1467 21.1466Z" fill="white"/>
</svg>
