<svg width="18" height="17" viewBox="0 0 18 17" fill="none" xmlns="http://www.w3.org/2000/svg">
<path fill-rule="evenodd" clip-rule="evenodd" d="M16.2134 8.5C16.2134 12.366 13.0794 15.5 9.21338 15.5C5.34739 15.5 2.21338 12.366 2.21338 8.5C2.21338 4.63401 5.34739 1.5 9.21338 1.5C13.0794 1.5 16.2134 4.63401 16.2134 8.5ZM17.7134 8.5C17.7134 13.1944 13.9078 17 9.21338 17C4.51896 17 0.713379 13.1944 0.713379 8.5C0.713379 3.80558 4.51896 0 9.21338 0C13.9078 0 17.7134 3.80558 17.7134 8.5ZM7.93781 7.948L7.98581 9.928H9.34181L9.37781 8.968C9.92981 8.96 10.4138 8.868 10.8298 8.692C11.2538 8.516 11.5858 8.248 11.8258 7.888C12.0738 7.528 12.1978 7.072 12.1978 6.52C12.1978 5.984 12.0778 5.532 11.8378 5.164C11.6058 4.788 11.2818 4.5 10.8658 4.3C10.4578 4.1 9.98581 4 9.44981 4C8.87381 4 8.37781 4.108 7.96181 4.324C7.55381 4.54 7.24181 4.836 7.02581 5.212C6.80981 5.588 6.70581 6.016 6.71381 6.496H8.16581C8.16581 6.12 8.27781 5.824 8.50181 5.608C8.72581 5.384 9.03781 5.272 9.43781 5.272C9.82181 5.272 10.1298 5.384 10.3618 5.608C10.5938 5.824 10.7098 6.124 10.7098 6.508C10.7098 6.908 10.6098 7.212 10.4098 7.42C10.2098 7.628 9.94181 7.768 9.60581 7.84C9.26981 7.912 8.89781 7.948 8.48981 7.948H7.93781ZM7.97381 12.364C8.15781 12.54 8.38981 12.628 8.66981 12.628C8.94981 12.628 9.17781 12.54 9.35381 12.364C9.52981 12.188 9.61781 11.976 9.61781 11.728C9.61781 11.472 9.52981 11.256 9.35381 11.08C9.17781 10.904 8.94981 10.816 8.66981 10.816C8.38981 10.816 8.15781 10.904 7.97381 11.08C7.79781 11.256 7.70981 11.472 7.70981 11.728C7.70981 11.976 7.79781 12.188 7.97381 12.364Z" fill="#5C44FF"/>
</svg>
