<svg width="14" height="17" viewBox="0 0 14 17" fill="none" xmlns="http://www.w3.org/2000/svg">
<path fill-rule="evenodd" clip-rule="evenodd" d="M9.3567 4C9.3567 5.38071 8.23742 6.5 6.8567 6.5C5.47599 6.5 4.3567 5.38071 4.3567 4C4.3567 2.61929 5.47599 1.5 6.8567 1.5C8.23742 1.5 9.3567 2.61929 9.3567 4ZM10.8567 4C10.8567 6.20914 9.06584 8 6.8567 8C4.64757 8 2.8567 6.20914 2.8567 4C2.8567 1.79086 4.64757 0 6.8567 0C9.06584 0 10.8567 1.79086 10.8567 4ZM6.8567 10.5C9.19781 10.5 11.2047 11.9444 12.0295 13.9927C10.4362 14.3663 8.69114 14.5738 6.8567 14.5738C5.02226 14.5738 3.27717 14.3663 1.68391 13.9927C2.50865 11.9444 4.51559 10.5 6.8567 10.5ZM13.6834 14.2137C13.8123 14.6877 13.5126 15.1584 13.0382 15.2857C11.1504 15.7922 9.05837 16.0738 6.8567 16.0738C4.65503 16.0738 2.56299 15.7922 0.675195 15.2857C0.20082 15.1584 -0.0988578 14.6877 0.0299766 14.2137C0.846657 11.2094 3.59367 9 6.8567 9C10.1197 9 12.8667 11.2094 13.6834 14.2137Z" fill="#5C44FF"/>
</svg>
