<svg width="64" height="64" viewBox="0 0 64 64" fill="none" xmlns="http://www.w3.org/2000/svg">
<path d="M5.65604 10.2457H58.3439C60.776 10.2457 62.7528 12.2225 62.7528 14.6546V49.3454C62.7528 51.7774 60.776 53.7542 58.3439 53.7542H5.65604C3.224 53.7542 1.24719 51.7774 1.24719 49.3454V14.6546C1.24719 12.2225 3.224 10.2457 5.65604 10.2457Z" fill="white"/>
<path d="M58.344 8.99854H5.65605C2.53805 8.99854 0 11.5366 0 14.6546V49.3454C0 52.4634 2.53805 55.0015 5.65605 55.0015H58.344C61.462 55.0015 64 52.4634 64 49.3454V14.6546C64 11.5366 61.462 8.99854 58.344 8.99854ZM58.2754 10.2457C60.7386 10.2457 62.7466 12.2537 62.7466 14.7294V22.5369H1.2472V14.7294C1.2472 12.26 3.25519 10.2457 5.71841 10.2457H58.2816H58.2754ZM58.344 53.748H5.65605C3.22401 53.748 1.2472 51.7712 1.2472 49.3392V23.7778H62.7528V49.3392C62.7528 51.7712 60.776 53.748 58.344 53.748Z" fill="#808097"/>
<path d="M5.65604 53.748H58.3439C60.776 53.748 62.7528 51.7712 62.7528 49.3392V49.0274C61.8548 50.4991 60.2397 51.4906 58.4063 51.4906H5.84312C3.82266 51.4906 2.07034 50.2933 1.24719 48.5659V49.3392C1.24719 51.7712 3.224 53.748 5.65604 53.748Z" fill="#E4E0DD"/>
<path d="M58.2816 10.2457H5.7184C3.25518 10.2457 1.24719 12.2537 1.24719 14.7294V22.5369H62.7528V14.7294C62.7528 12.26 60.7448 10.2457 58.2816 10.2457Z" fill="#E4E0DD"/>
<path d="M7.48318 18.5584C8.06312 18.602 8.61813 18.415 9.06088 18.0346C9.4974 17.6542 9.76555 17.1241 9.8092 16.5442C9.89651 15.3469 8.99229 14.3054 7.80121 14.2181C7.74509 14.2181 7.6952 14.2181 7.63908 14.2181C7.12149 14.2181 6.62261 14.4052 6.22351 14.7482C5.78699 15.1286 5.51884 15.6587 5.47519 16.2386C5.38788 17.4359 6.2921 18.4773 7.48318 18.5646V18.5584Z" fill="#E20626"/>
<path d="M23.8714 18.5584C24.4451 18.602 25.0063 18.415 25.4491 18.0346C25.8919 17.6542 26.1538 17.1241 26.1974 16.5442C26.2847 15.3469 25.3805 14.3054 24.1894 14.2181C24.1333 14.2181 24.0834 14.2181 24.0273 14.2181C23.5097 14.2181 23.0108 14.4052 22.6117 14.7482C22.1752 15.1286 21.9071 15.6587 21.8634 16.2386C21.7761 17.4359 22.6803 18.4773 23.8714 18.5646V18.5584Z" fill="white"/>
<path d="M15.671 19.8117C15.59 19.8117 15.5027 19.8117 15.4216 19.8055C13.5446 19.6683 12.1227 18.0282 12.2599 16.145C12.3285 15.2345 12.7401 14.4051 13.4323 13.8065C14.1245 13.2078 15.0038 12.9147 15.9142 12.9833C17.7913 13.1205 19.2131 14.7606 19.0759 16.6438C19.0073 17.5543 18.5957 18.3837 17.9035 18.9823C17.2799 19.5249 16.4942 19.818 15.671 19.818V19.8117ZM15.6648 14.218C15.1472 14.218 14.6483 14.4051 14.2492 14.7481C13.8127 15.1285 13.5446 15.6586 13.5009 16.2385C13.4136 17.4358 14.3178 18.4772 15.5089 18.5645C16.0888 18.6082 16.6438 18.4211 17.0866 18.0407C17.5294 17.6603 17.7913 17.1303 17.8349 16.5503C17.9222 15.353 17.018 14.3116 15.8269 14.2243C15.7708 14.2243 15.7209 14.2243 15.6648 14.2243V14.218Z" fill="#808097"/>
<path d="M7.64531 19.8117C7.56424 19.8117 7.47693 19.8117 7.39587 19.8055C5.51883 19.6683 4.09703 18.0282 4.23422 16.145C4.30281 15.2345 4.71439 14.4051 5.40658 13.8065C6.09878 13.2078 6.97805 12.9147 7.88851 12.9833C9.76554 13.1205 11.1874 14.7606 11.0502 16.6438C10.9816 17.5543 10.57 18.3837 9.87779 18.9823C9.25419 19.5249 8.46846 19.818 7.64531 19.818V19.8117ZM7.63907 14.218C7.12148 14.218 6.6226 14.4051 6.2235 14.7481C5.78698 15.1285 5.51883 15.6586 5.47518 16.2385C5.38788 17.4358 6.2921 18.4772 7.48317 18.5645C8.06312 18.6082 8.61812 18.4211 9.06088 18.0407C9.4974 17.6603 9.76554 17.1303 9.8092 16.5503C9.8965 15.353 8.99228 14.3116 7.80121 14.2243C7.74508 14.2243 7.69519 14.2243 7.63907 14.2243V14.218Z" fill="#808097"/>
<path d="M24.0335 19.8117C23.9524 19.8117 23.8651 19.8117 23.7841 19.8055C21.907 19.6683 20.4852 18.0282 20.6224 16.145C20.691 15.2345 21.1026 14.4051 21.7948 13.8065C22.487 13.2078 23.3662 12.9147 24.2767 12.9833C26.1537 13.1205 27.5755 14.7606 27.4383 16.6438C27.3698 17.5543 26.9582 18.3837 26.266 18.9823C25.6424 19.5249 24.8566 19.818 24.0335 19.818V19.8117ZM24.0273 14.218C23.5097 14.218 23.0108 14.4051 22.6117 14.7481C22.1752 15.1285 21.907 15.6586 21.8634 16.2385C21.7761 17.4358 22.6803 18.4772 23.8714 18.5645C24.4451 18.6082 25.0063 18.4211 25.4491 18.0407C25.8918 17.6603 26.1537 17.1303 26.1974 16.5503C26.2847 15.353 25.3805 14.3116 24.1894 14.2243C24.1333 14.2243 24.0834 14.2243 24.0273 14.2243V14.218Z" fill="#808097"/>
<path d="M5.28186 41.1451V37.5594L8.20654 35.065L5.28186 32.5582V29.0037L10.7321 33.5684V36.5804L5.28186 41.1451Z" fill="#808097"/>
<path d="M20.4104 37.497H16.6751L16.0764 39.1433H13.2889L17.1178 29.6646H19.9677L23.7966 39.1433H21.0091L20.4104 37.497ZM19.7182 35.6262L18.5459 32.4707L17.3735 35.6262H19.7182Z" fill="#E20626"/>
<path d="M27.5569 39.1495H24.944V29.6708H29.1034C30.2321 29.6708 31.0989 29.9452 31.6976 30.5002C32.2962 31.0552 32.5956 31.8347 32.5956 32.8387C32.5956 33.8427 32.2962 34.6222 31.6976 35.1772C31.0989 35.7322 30.2321 36.0066 29.1034 36.0066H27.5569V39.1495ZM27.5569 34.0235H28.4237C29.384 34.0235 29.8642 33.6306 29.8642 32.8449C29.8642 32.0592 29.384 31.6663 28.4237 31.6663H27.5569V34.0297V34.0235Z" fill="#E20626"/>
<path d="M36.5928 29.6708V39.1495H33.98V29.6708H36.5928Z" fill="#E20626"/>
</svg>
