<svg width="64" height="64" viewBox="0 0 64 64" fill="none" xmlns="http://www.w3.org/2000/svg">
<path d="M32 1.79169C15.343 1.79169 1.79171 15.343 1.79171 32C1.79171 48.6569 15.343 62.2083 32 62.2083C48.657 62.2083 62.2083 48.6569 62.2083 32C62.2083 15.343 48.651 1.79169 32 1.79169Z" fill="white"/>
<path d="M32 39.991C35.4766 39.991 38.2949 36.916 38.2949 33.1228C38.2949 29.3296 35.4766 26.2546 32 26.2546C28.5235 26.2546 25.7051 29.3296 25.7051 33.1228C25.7051 36.916 28.5235 39.991 32 39.991Z" fill="#E4E0DD"/>
<path d="M42.0933 27.7656C41.9022 27.3475 41.1616 27.2281 40.4211 27.5625L32.8182 30.4233L28.2434 16.9795C28.0224 16.2031 27.4968 16.1672 27.1385 16.3106C26.7443 16.4838 26.6189 16.8003 26.8399 17.5767L30.2322 33.302C30.4532 34.0784 31.361 34.5024 32.2568 34.2516C32.5316 34.1739 32.7705 34.0366 32.9675 33.8634L41.0123 28.9601C41.0123 28.9601 42.2785 28.2016 42.0814 27.7656H42.0933Z" fill="#E20626"/>
<path d="M31.57 11.8492H32.4241C32.9377 11.8492 33.3558 12.2672 33.3558 12.7809V16.5435C33.3558 17.0571 32.9377 17.4752 32.4241 17.4752H31.57C31.0564 17.4752 30.6383 17.0571 30.6383 16.5435V12.7809C30.6383 12.2672 31.0564 11.8492 31.57 11.8492Z" fill="#808097"/>
<path d="M51.1176 30.704C51.6312 30.704 52.0493 31.122 52.0493 31.6297V32.4837C52.0493 32.9974 51.6312 33.4095 51.1176 33.4095H47.349C46.8354 33.4095 46.4233 32.9974 46.4233 32.4837V31.6297C46.4233 31.1161 46.8413 30.704 47.355 30.704H51.1176Z" fill="#808097"/>
<path d="M16.9915 30.5367C17.5051 30.5367 17.9172 30.9548 17.9172 31.4625V32.3165C17.9172 32.8301 17.5051 33.2482 16.9915 33.2482H13.2289C12.7152 33.2482 12.2972 32.8301 12.2972 32.3225V31.4684C12.2972 30.9548 12.7152 30.5427 13.2289 30.5427H16.9915V30.5367Z" fill="#808097"/>
<path d="M21.9007 20.6823C22.265 21.0466 22.265 21.6319 21.9007 21.9963L21.2975 22.5995C20.9332 22.9638 20.3479 22.9638 19.9836 22.5995L17.3199 19.9358C16.9556 19.5774 16.9556 18.9862 17.3199 18.6219L17.9231 18.0186C18.2874 17.6543 18.8727 17.6543 19.237 18.0186L21.9007 20.6823Z" fill="#808097"/>
<path d="M45.2228 17.9768C45.5871 17.6125 46.1724 17.6125 46.5368 17.9768L47.14 18.5801C47.5043 18.9384 47.5043 19.5297 47.14 19.894L44.4763 22.5577C44.112 22.922 43.5267 22.922 43.1624 22.5577L42.5592 21.9544C42.1948 21.5901 42.1948 21.0048 42.5592 20.6405L45.2228 17.9828V17.9768Z" fill="#808097"/>
<path d="M30.9906 47.4027C30.9906 46.8891 31.4087 46.477 31.9163 46.477H32.7644C33.278 46.477 33.6961 46.8891 33.6961 47.4027V51.1653C33.6961 51.679 33.278 52.097 32.7704 52.097H31.9163C31.4027 52.097 30.9906 51.679 30.9906 51.1653V47.4027Z" fill="#808097"/>
<path d="M42.4457 43.2639C42.0814 42.8996 42.0814 42.3143 42.4457 41.95L43.0489 41.3468C43.4132 40.9824 43.9985 40.9824 44.3628 41.3468L47.0265 44.0104C47.3908 44.3748 47.3908 44.96 47.0265 45.3244L46.4233 45.9276C46.059 46.2919 45.4737 46.2919 45.1094 45.9276L42.4457 43.2639Z" fill="#808097"/>
<path d="M19.1176 45.9694C18.7533 46.3337 18.168 46.3337 17.8037 45.9694L17.2005 45.3662C16.8361 45.0018 16.8361 44.4166 17.2005 44.0522L19.8641 41.3886C20.2285 41.0242 20.8138 41.0242 21.1781 41.3886L21.7813 41.9918C22.1396 42.3561 22.1396 42.9414 21.7813 43.3057L19.1176 45.9694Z" fill="#808097"/>
<path d="M36.2524 31.9701C36.2524 34.2217 34.4248 36.0493 32.1732 36.0493C29.9216 36.0493 28.0941 34.2217 28.0941 31.9701C28.0941 29.7185 29.9216 27.891 32.1732 27.891C34.4248 27.891 36.2524 29.7185 36.2524 31.9701Z" fill="#808097"/>
<path d="M32 63.994C14.3516 63.994 0 49.6424 0 32C0 14.3576 14.3516 0 32 0C49.6484 0 64 14.3516 64 32C64 49.6484 49.6484 64 32 64V63.994ZM32 1.79171C15.343 1.79171 1.79171 15.343 1.79171 32C1.79171 48.657 15.343 62.2083 32 62.2083C48.657 62.2083 62.2083 48.657 62.2083 32C62.2083 15.343 48.651 1.79171 32 1.79171Z" fill="#808097"/>
<path d="M3.06376 40.6539C6.79649 53.1064 18.353 62.2023 31.9999 62.2023C46.4949 62.2023 58.6367 51.9358 61.5393 38.2949C56.6599 50.4248 45.175 58.9473 31.773 58.9473C19.2608 58.9473 8.41501 51.5117 3.06376 40.648V40.6539Z" fill="#E4E0DD"/>
</svg>
