<svg width="64" height="66" viewBox="0 0 64 66" fill="none" xmlns="http://www.w3.org/2000/svg">
<path d="M53.2864 41.371L0.655711 41.3382C0.47879 41.3382 0.308422 41.2661 0.183922 41.1416C0.0594217 41.0106 -0.00610462 40.8402 0.000448009 40.6633C0.0135533 40.2636 0.223237 40.1456 0.917816 39.7459C2.82463 38.6451 8.63681 35.2967 8.75476 30.7623V30.7164C8.74821 30.6574 8.74165 30.5984 8.74165 30.5395C8.74165 26.1951 11.7493 22.6173 15.5695 22.2504C15.5629 22.0997 15.5564 21.9555 15.5564 21.8179C15.5564 17.6177 18.6296 14.2038 22.4039 14.2038C22.8298 14.2038 23.2557 14.2496 23.6751 14.3414C25.844 6.41269 32.4229 0.934692 39.8797 0.934692C48.6144 0.934692 55.9468 8.45056 56.7462 18.1353C61.0316 19.7735 63.9869 24.3472 63.9869 29.4321C63.9869 36.0175 59.1903 41.371 53.2864 41.371ZM2.995 40.0277L47.5005 40.0539H53.2799C58.4564 40.0604 62.6698 35.2901 62.6698 29.4321C62.6698 24.7404 59.8915 20.5467 55.914 19.2296C55.6585 19.1444 55.4816 18.9151 55.4684 18.6464C54.8984 9.44656 48.0509 2.24522 39.8797 2.24522C32.8291 2.24522 26.6238 7.61182 24.789 15.2915C24.7497 15.4684 24.6318 15.6191 24.468 15.7109C24.3041 15.8026 24.1141 15.8157 23.9438 15.7633C23.4392 15.5929 22.9215 15.5143 22.4039 15.5143C19.3504 15.5143 16.8669 18.345 16.8669 21.8179C16.8669 22.1128 16.8931 22.4273 16.939 22.7943C16.9652 22.9843 16.9062 23.1743 16.7752 23.3185C16.6441 23.4626 16.4672 23.5347 16.2706 23.5347C16.2575 23.5347 16.2116 23.5347 16.1985 23.5347C12.8174 23.5347 10.0456 26.68 10.0456 30.546L10.0587 30.7623C9.94734 35.1394 5.65537 38.3633 2.98845 40.0342L2.995 40.0277Z" fill="#808097"/>
<path d="M62.6699 29.4321C62.6699 24.7404 59.8916 20.5467 55.9141 19.2297C55.6586 19.1445 55.4816 18.9151 55.4685 18.6465C54.8984 9.44658 48.0509 2.24524 39.8798 2.24524C32.8292 2.24524 26.6239 7.61184 24.7891 15.2915C24.7498 15.4684 24.6319 15.6192 24.468 15.7109C24.3042 15.8026 24.1142 15.8157 23.9438 15.7633C23.4393 15.5929 22.9216 15.5143 22.404 15.5143C19.3504 15.5143 16.867 18.345 16.867 21.8179C16.867 22.1128 16.8932 22.4273 16.9391 22.7943C16.9653 22.9843 16.9063 23.1743 16.7753 23.3185C16.6442 23.4626 16.4673 23.5347 16.2707 23.5347C16.2576 23.5347 16.2117 23.5347 16.1986 23.5347C12.8175 23.5347 10.0457 26.68 10.0457 30.546L10.0588 30.7623C9.94742 35.1394 5.65545 38.3633 2.98853 40.0342L47.494 40.0605H53.2734C58.45 40.067 62.6633 35.2967 62.6633 29.4386L62.6699 29.4321Z" fill="white"/>
<path d="M63.9804 29.4321C63.9804 24.3472 61.0251 19.7735 56.7397 18.1353C55.9468 8.45056 48.6144 0.934692 39.8798 0.934692C32.4229 0.934692 25.8506 6.41269 23.6817 14.3348C23.2623 14.2431 22.8364 14.1972 22.4105 14.1972C18.6362 14.1972 15.563 17.6111 15.563 21.8114C15.563 21.949 15.563 22.0997 15.5761 22.2438C11.7559 22.6108 8.74825 26.1885 8.74825 30.5329C8.74825 30.5919 8.74825 30.6509 8.7548 30.7098V30.7557C8.6434 35.2901 2.83122 38.6385 0.924409 39.7394C0.223278 40.1391 0.0135935 40.2636 0.000488281 40.6633C0.000488281 40.8402 0.0594619 41.0106 0.183962 41.1416C0.308462 41.2661 0.47883 41.3382 0.655751 41.3382L19.4815 41.3513C19.5928 41.7314 19.7632 42.616 19.2521 43.5726C18.5837 44.8307 16.618 46.4951 11.0548 47.288C9.12175 47.5632 7.83088 48.3757 7.21493 49.6994C5.85199 52.6349 8.51235 56.9531 8.62375 57.1366C8.74825 57.3332 8.96448 57.4446 9.18072 57.4446C9.29867 57.4446 9.41662 57.4118 9.52801 57.3463C9.83598 57.1562 9.92772 56.75 9.73769 56.442C9.06277 55.3674 7.51635 52.1631 8.40751 50.2498C8.82688 49.3521 9.77701 48.7885 11.2448 48.5789C16.1462 47.8777 19.2325 46.3968 20.4119 44.182C21.0082 43.0615 20.9689 42.0197 20.8378 41.3447H32.5408C32.0035 41.8952 31.4662 42.6422 31.2303 43.6316C30.8044 45.3746 31.4138 47.3208 33.0257 49.411C34.3363 51.1082 34.8801 52.7725 34.6377 54.3583C34.2707 56.7565 32.2067 58.2243 32.187 58.2374C31.8921 58.4406 31.8135 58.8534 32.0232 59.1482C32.1477 59.3317 32.3574 59.43 32.5605 59.43C32.6915 59.43 32.816 59.3907 32.934 59.3121C33.0388 59.24 35.4764 57.5297 35.9351 54.568C36.2365 52.6087 35.6075 50.6036 34.0676 48.6051C32.7112 46.849 32.187 45.2829 32.5081 43.9527C32.9078 42.2818 34.5525 41.4693 34.5918 41.4496C34.6442 41.4234 34.6836 41.3841 34.7229 41.3513H47.4874C47.9854 41.443 51.5107 42.118 52.8016 44.5359C53.5551 45.9447 53.4175 47.7336 52.3887 49.8566C51.3076 52.0976 51.1634 54.0569 51.9497 55.6753C53.162 58.1785 56.1565 58.873 56.281 58.8992C56.3269 58.9123 56.3793 58.9123 56.4252 58.9123C56.7266 58.9123 56.9953 58.7027 57.0608 58.4012C57.1394 58.0474 56.9166 57.7001 56.5628 57.6215C56.5366 57.6215 54.0531 57.0317 53.1226 55.0987C52.5264 53.8603 52.6771 52.2876 53.5682 50.4267C54.7805 47.9039 54.9115 45.7154 53.9548 43.9199C53.3389 42.7667 52.3494 41.941 51.3403 41.3644H53.2996C59.1969 41.3644 64 36.0109 64 29.4255L63.9804 29.4321ZM10.0653 30.7623L10.0522 30.546C10.0522 26.68 12.8174 23.5347 16.2051 23.5347C16.2182 23.5347 16.2641 23.5347 16.2772 23.5347C16.4738 23.5347 16.6573 23.4626 16.7818 23.3185C16.9128 23.1743 16.9718 22.9843 16.9456 22.7943C16.8932 22.4273 16.8735 22.1193 16.8735 21.8179C16.8735 18.3385 19.357 15.5143 22.4105 15.5143C22.9216 15.5143 23.4392 15.5995 23.9503 15.7633C24.1273 15.8223 24.3173 15.8026 24.4746 15.7109C24.6318 15.6191 24.7498 15.4684 24.7956 15.2915C26.6304 7.61182 32.8357 2.24522 39.8863 2.24522C48.0575 2.24522 54.905 9.45311 55.475 18.6464C55.4947 18.9151 55.6716 19.1444 55.9206 19.2296C59.8981 20.5467 62.6764 24.7404 62.6764 29.4321C62.6764 35.2967 58.463 40.0604 53.2865 40.0604H47.507V40.0539L3.00159 40.0277C5.66196 38.3633 9.96048 35.1329 10.0719 30.7557L10.0653 30.7623Z" fill="#808097"/>
<path d="M11.5068 65.0653C8.91198 65.0653 6.80203 62.9553 6.80203 60.3605C6.80203 57.7656 8.91198 55.6557 11.5068 55.6557C14.1017 55.6557 16.2116 57.7656 16.2116 60.3605C16.2116 62.9553 14.1017 65.0653 11.5068 65.0653ZM11.5068 56.9662C9.63277 56.9662 8.11256 58.4864 8.11256 60.3605C8.11256 62.2345 9.63277 63.7547 11.5068 63.7547C13.3809 63.7547 14.9011 62.2345 14.9011 60.3605C14.9011 58.4864 13.3809 56.9662 11.5068 56.9662Z" fill="#E20626"/>
<path d="M11.5068 56.9597C9.63276 56.9597 8.11255 58.4799 8.11255 60.354C8.11255 62.228 9.63276 63.7482 11.5068 63.7482C13.3809 63.7482 14.9011 62.228 14.9011 60.354C14.9011 58.4799 13.3809 56.9597 11.5068 56.9597Z" fill="white"/>
<path d="M34.0284 65.0653C31.4335 65.0653 29.3236 62.9553 29.3236 60.3605C29.3236 57.7656 31.4335 55.6557 34.0284 55.6557C36.6232 55.6557 38.7332 57.7656 38.7332 60.3605C38.7332 62.9553 36.6232 65.0653 34.0284 65.0653ZM34.0284 56.9662C32.1543 56.9662 30.6341 58.4864 30.6341 60.3605C30.6341 62.2345 32.1543 63.7547 34.0284 63.7547C35.9024 63.7547 37.4226 62.2345 37.4226 60.3605C37.4226 58.4864 35.9024 56.9662 34.0284 56.9662Z" fill="#E20626"/>
<path d="M57.6117 65.0653C55.0168 65.0653 52.9069 62.9553 52.9069 60.3605C52.9069 57.7656 55.0168 55.6557 57.6117 55.6557C60.2065 55.6557 62.3165 57.7656 62.3165 60.3605C62.3165 62.9553 60.2065 65.0653 57.6117 65.0653ZM57.6117 56.9662C55.7376 56.9662 54.2174 58.4864 54.2174 60.3605C54.2174 62.2345 55.7376 63.7547 57.6117 63.7547C59.4857 63.7547 61.0059 62.2345 61.0059 60.3605C61.0059 58.4864 59.4857 56.9662 57.6117 56.9662Z" fill="#E20626"/>
<path d="M34.0282 56.9597C32.1542 56.9597 30.6339 58.4799 30.6339 60.3539C30.6339 62.228 32.1542 63.7482 34.0282 63.7482C35.9023 63.7482 37.4225 62.228 37.4225 60.3539C37.4225 58.4799 35.9023 56.9597 34.0282 56.9597Z" fill="white"/>
<path d="M57.6115 56.9597C55.7375 56.9597 54.2173 58.4799 54.2173 60.3539C54.2173 62.228 55.7375 63.7482 57.6115 63.7482C59.4856 63.7482 61.0058 62.228 61.0058 60.3539C61.0058 58.4799 59.4856 56.9597 57.6115 56.9597Z" fill="white"/>
<path d="M60.0029 22.6239C57.0149 22.7157 50.1543 27.8529 47.3563 32.8133C44.4994 37.885 34.3363 36.1682 32.2918 40.0408H47.5005V40.0474H53.2799C58.4565 40.0539 62.6698 35.2836 62.6698 29.4256C62.6698 26.8897 61.8507 24.498 60.4747 22.6305C60.1733 22.4536 60.0029 22.6239 60.0029 22.6239Z" fill="#E4E0DD"/>
</svg>
