<svg width="64" height="64" viewBox="0 0 64 64" fill="none" xmlns="http://www.w3.org/2000/svg">
<path d="M62.7296 6.61743H1.26407V46.3978H62.7296V6.61743Z" fill="white"/>
<path d="M38.0929 47.6619H27.0196C26.672 49.6275 26.0526 52.6107 25.389 53.2364C25.035 53.5777 24.3461 53.8621 23.5497 54.1908C23.3412 54.2793 23.0757 54.3867 22.8229 54.5005C24.3587 54.6711 27.6011 54.7533 32.512 54.7533C37.4229 54.7533 40.7727 54.6648 42.3023 54.4942C42.0558 54.3804 41.7903 54.273 41.5881 54.1845C40.817 53.8558 40.1533 53.5777 39.7994 53.2427C39.1105 52.5854 38.4026 49.2988 38.0866 47.6682L38.0929 47.6619Z" fill="white"/>
<path d="M56.346 43.6737H53.4071C53.0595 43.6737 52.775 43.3893 52.775 43.0417C52.775 42.6941 53.0595 42.4097 53.4071 42.4097H56.346C56.6937 42.4097 56.9781 42.6941 56.9781 43.0417C56.9781 43.3893 56.6937 43.6737 56.346 43.6737Z" fill="#E20626"/>
<path d="M60.2015 40.2923H3.79222C3.4446 40.2923 3.16018 40.0079 3.16018 39.6603V9.67015C3.16018 9.32253 3.4446 9.03812 3.79222 9.03812H60.2015C60.5491 9.03812 60.8335 9.32253 60.8335 9.67015V39.6603C60.8335 40.0079 60.5491 40.2923 60.2015 40.2923ZM4.42425 39.0282H59.5694V10.3022H4.42425V39.0282Z" fill="#808097"/>
<path d="M63.3616 5.35336H0.632036C0.284416 5.35336 0 5.63778 0 5.9854V47.0298C0 47.3775 0.284416 47.6619 0.632036 47.6619H25.7365C25.351 49.7413 24.8074 51.9787 24.523 52.32C24.3397 52.497 23.6066 52.8003 23.0756 53.0215C21.9253 53.4956 21.2364 53.8053 20.971 54.2793C20.3389 55.082 20.9014 57.5975 20.9141 57.6228C21.1795 58.2611 21.8811 58.6467 32.5246 58.6467C43.7938 58.6467 43.9771 58.1916 44.2173 57.6228C44.2805 57.4711 44.8367 54.8418 44.0277 54.096C43.699 53.7231 43.067 53.4324 42.0936 53.0215C41.5753 52.8003 40.8675 52.5033 40.6905 52.3326C40.3871 51.985 39.7993 49.7286 39.3885 47.6682H63.368C63.7156 47.6682 64 47.3838 64 47.0362V5.9854C64 5.63778 63.7156 5.35336 63.368 5.35336H63.3616ZM43.0859 56.9718C42.1947 57.2435 38.649 57.3826 32.5246 57.3826C26.4002 57.3826 22.9556 57.2499 22.0517 56.9781C22.0012 56.6558 21.9443 56.0869 21.938 55.6319C23.1452 55.8657 25.9072 56.0111 32.5246 56.0111C39.142 56.0111 41.9925 55.8657 43.1997 55.6255C43.1997 56.0869 43.1428 56.6558 43.0859 56.9718ZM39.812 53.2364C40.1659 53.5714 40.8295 53.8558 41.6006 54.1782C41.8029 54.2667 42.0683 54.3741 42.3148 54.4879C40.7853 54.6585 37.505 54.747 32.5246 54.747C27.5441 54.747 24.3713 54.6648 22.8355 54.4942C23.0883 54.3804 23.3537 54.273 23.5623 54.1845C24.3587 53.8558 25.0413 53.5714 25.4015 53.2301C26.0589 52.6044 26.6846 49.6212 27.0322 47.6556H38.1055C38.4215 49.2862 39.123 52.5728 39.8183 53.2301L39.812 53.2364ZM62.7296 46.3978H1.26407V6.61744H62.7296V46.3978Z" fill="#808097"/>
<path d="M22.0517 56.9781C22.9555 57.2436 26.4697 57.3826 32.5246 57.3826C38.5795 57.3826 42.1947 57.2436 43.0859 56.9718C43.1428 56.6621 43.1933 56.0933 43.1997 55.6255C41.9925 55.8657 39.2178 56.0111 32.5246 56.0111C25.8313 56.0111 23.1451 55.8657 21.938 55.6319C21.9443 56.0869 22.0012 56.6558 22.0517 56.9781Z" fill="#E4E0DD"/>
<path d="M27.0196 47.6619C26.9058 48.3192 26.7541 49.0966 26.5835 49.855L38.5543 49.8424C38.3583 49.0334 38.2003 48.2433 38.0865 47.6619H27.0133H27.0196Z" fill="#E4E0DD"/>
<path d="M36.5444 33.4979C35.4699 33.8455 33.1503 34.0225 31.9431 32.5309C30.4705 30.7106 31.526 29.2822 30.6348 29.4908C27.146 30.2935 25.5533 28.075 25.2815 27.462C25.2815 27.462 25.1361 27.0385 25.0792 27.4177C25.0792 27.4177 25.0792 27.4304 25.0792 27.4367C24.9718 27.9613 24.9212 29.2001 25.193 30.3061C25.5343 31.6966 26.5645 34.0731 29.4529 35.255C31.8863 36.2536 34.9706 35.7733 37.0247 33.6875C37.5367 33.1693 37.4166 33.2198 36.5507 33.4979" fill="#E20626"/>
<path d="M31.0519 14.1513C30.2429 13.1527 29.4023 12.6091 29.4023 12.6091C30.0343 13.9111 30.9128 16.5467 28.0624 19.5299C26.3179 21.3439 25.0918 23.2463 25.7933 25.3826C26.1473 26.4507 26.9373 27.8033 28.5806 28.0687C29.1684 28.1635 29.8763 28.0687 30.2618 27.936C32.632 27.108 32.2844 24.6431 31.7598 23.063C31.6902 22.8544 31.5765 22.3551 31.5322 22.1718C31.172 20.6234 32.2844 19.6121 32.6193 18.4997C32.6446 18.4112 32.6699 18.3227 32.6889 18.2343C32.7331 18.032 32.7521 17.8234 32.7647 17.6212C32.7647 15.8578 31.8103 15.0867 31.0519 14.1513Z" fill="#E20626"/>
<path d="M38.9841 28.2584C38.8577 26.7351 38.2003 25.5975 36.3295 23.4738C35.4004 22.4183 34.7747 21.1479 34.8189 20.1872C34.9517 19.0243 35.4573 18.4175 35.4573 18.4175C35.4573 18.4175 34.7747 18.7399 34.2817 19.2708C33.8519 19.7385 33.4474 20.1177 33.0303 21.0658C33.005 21.1985 32.9797 21.3439 32.9608 21.4892C32.7395 23.0757 34.0668 24.523 33.656 26.5013C33.5486 27.0196 33.3147 27.1902 32.9039 28.0814C32.4109 29.1495 32.531 30.5779 33.2515 31.4881C33.9025 32.3097 35.0654 32.6763 36.1968 32.4045C38.2256 31.9178 39.1484 30.1987 38.9904 28.271" fill="#E20626"/>
</svg>
