<svg width="64" height="64" viewBox="0 0 64 64" fill="none" xmlns="http://www.w3.org/2000/svg">
<path d="M54.3333 62.33H9.66667C7.97334 62.33 6.60001 60.9567 6.60001 59.2633V4.73665C6.60001 3.04332 7.97334 1.66998 9.66667 1.66998H54.3333C56.0267 1.66998 57.4 3.04332 57.4 4.73665V59.2633C57.4 60.9567 56.0267 62.33 54.3333 62.33ZM9.66667 3.00332C8.71334 3.00332 7.93334 3.78332 7.93334 4.73665V59.2633C7.93334 60.2167 8.71334 60.9966 9.66667 60.9966H54.3333C55.2867 60.9966 56.0667 60.2167 56.0667 59.2633V4.73665C56.0667 3.78332 55.2867 3.00332 54.3333 3.00332H9.66667Z" fill="#808097"/>
<path d="M54.3334 3.00336H9.66668C8.70939 3.00336 7.93335 3.7794 7.93335 4.73669V59.2634C7.93335 60.2207 8.70939 60.9967 9.66668 60.9967H54.3334C55.2906 60.9967 56.0667 60.2207 56.0667 59.2634V4.73669C56.0667 3.7794 55.2906 3.00336 54.3334 3.00336Z" fill="#E4E0DD"/>
<path d="M52.8267 54.2367H11.1734C10.8067 54.2367 10.5067 53.9367 10.5067 53.57V7.03001C10.5067 6.66334 10.8067 6.36334 11.1734 6.36334H52.8267C53.1934 6.36334 53.4934 6.66334 53.4934 7.03001V53.57C53.4934 53.9367 53.1934 54.2367 52.8267 54.2367ZM11.8401 52.9033H52.1601V7.69668H11.8401V52.9033Z" fill="#808097"/>
<path d="M52.1601 7.69666H11.8401V52.91H52.1601V7.69666Z" fill="white"/>
<path d="M32 5.57667C32.4971 5.57667 32.9 5.17373 32.9 4.67667C32.9 4.17962 32.4971 3.77667 32 3.77667C31.5029 3.77667 31.1 4.17962 31.1 4.67667C31.1 5.17373 31.5029 5.57667 32 5.57667Z" fill="#808097"/>
<path d="M33.8334 57.6367C33.8334 58.65 33.0134 59.47 32.0001 59.47C30.9867 59.47 30.1667 58.65 30.1667 57.6367C30.1667 56.6233 30.9867 55.8033 32.0001 55.8033C33.0134 55.8033 33.8334 56.6233 33.8334 57.6367Z" fill="#808097"/>
<path d="M32.0001 58.23C31.4201 58.23 30.9334 57.95 30.7401 57.5567C30.6867 57.67 30.6534 57.79 30.6534 57.9234C30.6534 58.4967 31.2601 58.9634 32.0067 58.9634C32.7534 58.9634 33.3601 58.4967 33.3601 57.9234C33.3601 57.7967 33.3267 57.67 33.2734 57.5567C33.0801 57.95 32.5934 58.23 32.0134 58.23H32.0001Z" fill="white"/>
<path d="M40.4202 19.8634C40.2202 17.03 37.8602 14.7967 34.9735 14.7967C32.4468 14.7967 30.3202 16.51 29.7002 18.8434C29.5135 18.79 29.3202 18.7567 29.1135 18.7567C27.9668 18.7567 27.0335 19.69 27.0335 20.8367C27.0335 20.9434 27.0468 21.05 27.0602 21.1567C27.0535 21.1567 27.0468 21.1567 27.0335 21.1567C25.7668 21.1567 24.7468 22.1834 24.7468 23.4434C24.7468 23.47 24.7468 23.49 24.7468 23.5167C24.6935 25.2567 21.8135 26.41 21.8135 26.4767H39.4668C39.4668 26.4767 39.5002 26.4767 39.5135 26.4767C39.5202 26.4767 39.5335 26.4767 39.5402 26.4767C41.4002 26.4767 42.9068 24.97 42.9068 23.11C42.9068 21.5567 41.8468 20.2567 40.4135 19.87L40.4202 19.8634Z" fill="#E20626"/>
<path d="M23.0669 32.71C22.7535 32.4234 22.4469 32.21 22.1335 32.07C21.8202 31.93 21.5202 31.8634 21.2269 31.8634C20.8602 31.8634 20.5535 31.9634 20.3202 32.1634C20.0869 32.3634 19.9669 32.6234 19.9669 32.9434C19.9669 33.1634 20.0269 33.35 20.1402 33.49C20.2602 33.6367 20.4069 33.7567 20.6002 33.8634C20.7935 33.97 21.0002 34.0567 21.2402 34.1367C21.4802 34.2167 21.7135 34.2967 21.9469 34.3834C22.8802 34.7367 23.5602 35.21 23.9935 35.8034C24.4269 36.3967 24.6402 37.1634 24.6402 38.1167C24.6402 38.7567 24.5469 39.3367 24.3535 39.8567C24.1669 40.3767 23.8869 40.8234 23.5202 41.19C23.1535 41.5567 22.7069 41.85 22.1802 42.05C21.6535 42.2567 21.0535 42.3567 20.3802 42.3567C18.9935 42.3567 17.7002 41.8834 16.5135 40.9434L17.7402 38.3234C18.1669 38.7567 18.5935 39.0767 19.0069 39.2834C19.4269 39.4967 19.8402 39.5967 20.2469 39.5967C20.7135 39.5967 21.0602 39.4767 21.2869 39.23C21.5135 38.9834 21.6269 38.71 21.6269 38.4034C21.6269 38.2167 21.6002 38.05 21.5402 37.9167C21.4802 37.7767 21.3869 37.65 21.2469 37.5367C21.1135 37.4234 20.9335 37.31 20.7135 37.21C20.4935 37.11 20.2269 37.0034 19.9202 36.8767C19.5535 36.7434 19.1869 36.5967 18.8335 36.4367C18.4802 36.2767 18.1602 36.0634 17.8869 35.7967C17.6069 35.53 17.3869 35.1967 17.2135 34.79C17.0402 34.3834 16.9602 33.8767 16.9602 33.2567C16.9602 32.6367 17.0469 32.0767 17.2269 31.57C17.4069 31.07 17.6602 30.6367 17.9869 30.2767C18.3135 29.9167 18.7135 29.6367 19.1802 29.4367C19.6535 29.2367 20.1802 29.1367 20.7602 29.1367C21.3069 29.1367 21.8735 29.2234 22.4669 29.3967C23.0602 29.57 23.6269 29.8167 24.1735 30.15L23.0335 32.69L23.0669 32.71Z" fill="#E20626"/>
<path d="M26.4535 29.51H30.6801C31.4268 29.51 32.1335 29.6834 32.7868 30.0234C33.4401 30.3634 34.0135 30.8234 34.5068 31.39C35.0001 31.9567 35.3868 32.6234 35.6668 33.3834C35.9468 34.1434 36.0868 34.9367 36.0868 35.7634C36.0868 36.59 35.9468 37.37 35.6735 38.13C35.4001 38.89 35.0135 39.5567 34.5201 40.13C34.0268 40.7034 33.4535 41.1634 32.8001 41.51C32.1468 41.85 31.4401 42.0234 30.6801 42.0234H26.4535V29.51ZM29.3135 39.2634H29.9668C30.4601 39.2634 30.9068 39.1767 31.2935 38.9967C31.6801 38.8167 32.0068 38.5767 32.2801 38.2634C32.5468 37.9567 32.7535 37.5834 32.8935 37.1634C33.0335 36.7367 33.1068 36.27 33.1068 35.7634C33.1068 35.2567 33.0335 34.8034 32.8868 34.37C32.7401 33.9367 32.5335 33.57 32.2668 33.2567C32.0001 32.95 31.6735 32.7034 31.2801 32.53C30.8868 32.3567 30.4535 32.2634 29.9668 32.2634H29.3135V39.2634Z" fill="#E20626"/>
<path d="M40.7667 34.67L44.2534 29.51H47.7801L43.4201 35.43L48.1868 42.0167H44.4868L40.7667 36.59V42.0167H37.9067V29.51H40.7667V34.67Z" fill="#E20626"/>
</svg>
